<svg width="96" height="96" xmlns="http://www.w3.org/2000/svg" xmlns:xlink="http://www.w3.org/1999/xlink" xml:space="preserve" overflow="hidden"><g transform="translate(-592 -312)"><path d="M600 342C600 340.9 600.9 340 602 340L616 340 616 356 600 356 600 342ZM620 340 636 340 636 356 620 356 620 340ZM640 340 656 340 656 356 640 356 640 340ZM660 340 673.3 340C675.2 340 676.9 341.4 677.2 343.3L679.5 357.5C679.7 359 679.9 360.5 679.9 362L666 362 660 356 660 340ZM596 340 596 376C596 378.2 597.8 380 600 380L600.2 380C600.1 379.4 600 378.7 600 378 600 372.5 604.5 368 610 368 615.5 368 620 372.5 620 378 620 378.7 619.9 379.4 619.8 380L656.2 380C656.1 379.4 656 378.7 656 378 656 372.5 660.5 368 666 368 671.5 368 676 372.5 676 378 676 378.7 675.9 379.4 675.8 380L680 380C682.2 380 684 378.2 684 376L684 363.2C684 361.1 683.8 358.9 683.5 356.8L681.2 342.5C680.5 338.7 677.2 335.9 673.3 335.9L600 335.9C597.8 336 596 337.8 596 340Z"/><path d="M673 378C673 381.866 669.866 385 666 385 662.134 385 659 381.866 659 378 659 374.134 662.134 371 666 371 669.866 371 673 374.134 673 378Z"/><path d="M617 378C617 381.866 613.866 385 610 385 606.134 385 603 381.866 603 378 603 374.134 606.134 371 610 371 613.866 371 617 374.134 617 378Z"/></g></svg>